<?xml version="1.0" encoding="utf-8"?>
<!-- Generator: Adobe Illustrator 27.0.1, SVG Export Plug-In . SVG Version: 6.00 Build 0)  -->
<svg version="1.1" id="레이어_1" xmlns="http://www.w3.org/2000/svg" xmlns:xlink="http://www.w3.org/1999/xlink" x="0px"
	 y="0px" viewBox="0 0 48 48" style="enable-background:new 0 0 48 48;" xml:space="preserve">
<style type="text/css">
	.st0{opacity:0.3;fill:#FF0066;}
	.st1{opacity:0.3;fill:#00E1FF;}
	.st2{fill:#FFFFFF;}
	.st3{fill:#222222;}
	.st4{fill:none;}
	.st5{fill:none;stroke:#222222;stroke-width:2.7;stroke-linecap:round;stroke-miterlimit:10;}
	.st6{fill:none;stroke:#222222;stroke-width:3;stroke-linecap:round;stroke-linejoin:round;stroke-miterlimit:10;}
	.st7{fill:none;stroke:#222222;stroke-width:3;stroke-miterlimit:10;}
</style>
<g>
	<rect x="0.2" y="-53" class="st0" width="48" height="48"/>
	<rect x="4.2" y="-49" class="st1" width="40" height="40"/>
</g>
<g>
	<rect x="49.98" y="-53" class="st0" width="48" height="48"/>
	<rect x="53.98" y="-49" class="st1" width="40" height="40"/>
</g>
<g>
	<rect x="99.98" y="-53" class="st0" width="48" height="48"/>
	<rect x="103.98" y="-49" class="st1" width="40" height="40"/>
</g>
<g>
	<rect x="-50.78" y="-48" class="st0" width="48" height="48"/>
	<rect x="-46.78" y="-44" class="st1" width="40" height="40"/>
</g>
<g>
	<rect x="-100.76" y="-48" class="st0" width="48" height="48"/>
	<rect x="-96.76" y="-44" class="st1" width="40" height="40"/>
</g>
<g>
	<rect x="-100.76" y="4.53" class="st0" width="48" height="48"/>
	<rect x="-96.76" y="8.53" class="st1" width="40" height="40"/>
</g>
<g>
	<path class="st2" d="M20.86-46.53c0-0.47,0.51-0.86,1.09-0.86l4.55,0.01c0.58,0,1.05,0.38,1.05,0.85l0,5.54h2l-0.05-5.93
		c0-1.38-1.34-2.08-3.05-2.08h-4.5c-1.71,0-3.09,0.9-3.09,2.28V-41h2L20.86-46.53z"/>
	<path class="st2" d="M36-39h-6.03h-2h-7.55h-2h-5.97l-3.8,27c0,1.66,1.34,3,3,3h25.08c1.66,0,3-1.34,3-3L36-39z M14.3-37h4.13h2
		h7.55h6.34l3.4,25c0,0.55-0.45,1-1,1H11.69c-0.55,0-1-0.45-1-1L14.3-37z"/>
</g>
<g>
	<path class="st3" d="M20.86-95.53c0-0.47,0.51-0.86,1.09-0.86l4.55,0.01c0.58,0,1.05,0.38,1.05,0.85l0,5.54h2l-0.05-5.93
		c0-1.38-1.34-2.08-3.05-2.08h-4.5c-1.71,0-3.09,0.9-3.09,2.28v5.72h2L20.86-95.53z"/>
	<path class="st3" d="M36-88h-6.03h-2h-7.55h-2h-5.97l-3.8,27c0,1.66,1.34,3,3,3h25.08c1.66,0,3-1.34,3-3L36-88z M14.3-86h4.13h2
		h7.55h6.34l3.4,25c0,0.55-0.45,1-1,1H11.69c-0.55,0-1-0.45-1-1L14.3-86z"/>
</g>
<g>
	<path class="st2" d="M116.98-49c-6.63,0-12,5.37-12,12s5.37,12,12,12s12-5.37,12-12S123.6-49,116.98-49z M116.98-27
		c-5.52,0-10-4.48-10-10s4.48-10,10-10s10,4.48,10,10S122.5-27,116.98-27z"/>
	<path class="st2" d="M141.21-10.21l-15.5-15.58l1.56-1.56l15.5,15.58c0.3,0.3,0.3,0.8,0,1.1l-0.46,0.46
		C142-9.9,141.51-9.9,141.21-10.21z"/>
</g>
<g>
	<path class="st3" d="M115.98-97.02c-6.63,0-12,5.37-12,12s5.37,12,12,12s12-5.37,12-12S122.6-97.02,115.98-97.02z M115.98-75.02
		c-5.52,0-10-4.48-10-10s4.48-10,10-10s10,4.48,10,10S121.5-75.02,115.98-75.02z"/>
	<path class="st3" d="M140.21-58.23l-15.5-15.58l1.56-1.56l15.5,15.58c0.3,0.3,0.3,0.8,0,1.1l-0.46,0.46
		C141-57.92,140.51-57.92,140.21-58.23z"/>
</g>
<g>
	<path class="st2" d="M73.98-49c-4.42,0-8,3.58-8,8s3.58,8,8,8c4.42,0,8-3.58,8-8S78.39-49,73.98-49z M73.98-35.29
		c-3.16,0-5.71-2.56-5.71-5.71s2.56-5.71,5.71-5.71s5.71,2.56,5.71,5.71S77.13-35.29,73.98-35.29z"/>
	<g>
		<path class="st2" d="M89.71-11c-2.15-13.14-6.18-19.92-15.55-20c-9.44-0.08-13.82,6.81-15.93,20l0,0.01
			C58.07-9.95,58.88-9,59.94-9h0.04h28h0.04C89.08-9,89.89-9.95,89.71-11L89.71-11z M61.45-11c-0.63,0-1.11-0.57-0.99-1.19
			C62.72-23.59,66.05-29,74.16-29s11.07,5.41,13.32,16.81C87.61-11.57,87.12-11,86.5-11H61.45z"/>
	</g>
</g>
<g>
	<path class="st3" d="M74.21-98c-4.42,0-8,3.58-8,8s3.58,8,8,8c4.42,0,8-3.58,8-8S78.63-98,74.21-98z M74.21-84.29
		c-3.16,0-5.71-2.56-5.71-5.71s2.56-5.71,5.71-5.71c3.16,0,5.71,2.56,5.71,5.71S77.37-84.29,74.21-84.29z"/>
	<g>
		<path class="st3" d="M89.95-60C87.8-73.14,83.77-79.92,74.4-80c-9.44-0.08-13.82,6.81-15.93,20l0,0.01
			c-0.17,1.05,0.64,1.99,1.7,1.99h0.04h28h0.04C89.31-58,90.12-58.95,89.95-60L89.95-60z M61.69-60c-0.63,0-1.11-0.57-0.99-1.19
			C62.96-72.59,66.29-78,74.4-78s11.07,5.41,13.32,16.81c0.12,0.61-0.36,1.19-0.99,1.19H61.69z"/>
	</g>
</g>
<g>
	<path class="st4" d="M33.67,17.65H14.44c-0.25,0-0.35,0.31-0.35,0.52l-0.02,0.24l-3.57,22.1c0.03,0.25,0.22,0.44,0.43,0.44h26.12
		c0.22,0,0.4-0.19,0.43-0.44L34.1,18.17C34.1,17.88,33.91,17.65,33.67,17.65z"/>
	<path class="st3" d="M37.1,18.04c-0.07-1.88-1.58-3.4-3.43-3.4H31.9h-1.42h-13h-1.31h-1.74c-1.83,0-3.28,1.48-3.34,3.39L7.52,40.19
		L7.5,40.43c0,1.94,1.54,3.52,3.44,3.52h26.12c1.9,0,3.44-1.58,3.44-3.52L37.1,18.04z M37.06,40.95H10.94
		c-0.21,0-0.4-0.19-0.43-0.44l3.57-22.1l0.02-0.24c0-0.21,0.09-0.52,0.35-0.52h19.24c0.24,0,0.43,0.24,0.43,0.52l3.39,22.33
		C37.46,40.76,37.28,40.95,37.06,40.95z"/>
	<g>
		<path class="st3" d="M20.48,9.74c0-1.69,0.79-2.72,1.14-2.72h4.73c0.35,0,1.14,1.03,1.14,2.72v3.37h3V9.74
			c0-3.21-1.82-5.72-4.14-5.72h-4.73c-2.32,0-4.14,2.51-4.14,5.72v3.37h3V9.74z"/>
	</g>
</g>
<circle class="st5" cx="73.98" cy="11.86" r="6.34"/>
<path class="st6" d="M88.08,42.45H60.11c-0.56,0-1.02-0.46-1.02-1.02V37.9c0-8.15,6.61-14.76,14.76-14.76h0.47
	c8.15,0,14.76,6.61,14.76,14.76v3.54C89.09,42,88.64,42.45,88.08,42.45z"/>
<circle class="st7" cx="117.63" cy="17.53" r="11.74"/>
<line class="st6" x1="129.29" y1="29.58" x2="141.03" y2="41.32"/>
</svg>
