<?xml version="1.0" encoding="utf-8"?>
<!-- Generator: Adobe Illustrator 27.0.1, SVG Export Plug-In . SVG Version: 6.00 Build 0)  -->
<svg version="1.1" id="레이어_1" xmlns="http://www.w3.org/2000/svg" xmlns:xlink="http://www.w3.org/1999/xlink" x="0px"
	 y="0px" viewBox="0 0 48 48" style="enable-background:new 0 0 48 48;" xml:space="preserve">
<style type="text/css">
	.st0{opacity:0.3;fill:#FF0066;enable-background:new    ;}
	.st1{opacity:0.3;fill:#00E1FF;enable-background:new    ;}
	.st2{display:none;}
	.st3{display:inline;opacity:0.3;fill:#FF0066;enable-background:new    ;}
	.st4{display:inline;opacity:0.3;fill:#00E1FF;enable-background:new    ;}
	.st5{fill:#FFFFFF;}
	.st6{fill:#222222;}
	.st7{fill:none;}
	.st8{fill:none;stroke:#222222;stroke-width:2.7;stroke-linecap:round;stroke-miterlimit:10;}
	.st9{fill:none;stroke:#222222;stroke-width:3;stroke-linecap:round;stroke-linejoin:round;stroke-miterlimit:10;}
	.st10{fill:none;stroke:#222222;stroke-width:3;stroke-miterlimit:10;}
	.st11{fill:none;stroke:#FFFFFF;stroke-width:2;stroke-linecap:round;stroke-miterlimit:10;}
	.st12{fill:none;stroke:#000222;stroke-width:2;stroke-linecap:round;stroke-miterlimit:10;}
</style>
<g>
	<rect x="0.2" y="-53" class="st0" width="48" height="48"/>
	<rect x="4.2" y="-49" class="st1" width="40" height="40"/>
</g>
<g>
	<rect x="50" y="-53" class="st0" width="48" height="48"/>
	<rect x="54" y="-49" class="st1" width="40" height="40"/>
</g>
<g>
	<rect x="100" y="-53" class="st0" width="48" height="48"/>
	<rect x="104" y="-49" class="st1" width="40" height="40"/>
</g>
<g class="st2">
	<rect y="0" class="st3" width="48" height="48"/>
	<rect x="4" y="4" class="st4" width="40" height="40"/>
</g>
<g>
	<path class="st5" d="M-28.7-46.5c0-0.5,0.5-0.9,1.1-0.9l4.5,0c0.6,0,1,0.4,1,0.8v5.5h2l0-5.9c0-1.4-1.3-2.1-3-2.1h-4.5
		c-1.7,0-3.1,0.9-3.1,2.3v5.7h2V-46.5z"/>
	<path class="st5" d="M-13.5-39h-6h-2h-7.6h-2h-6l-3.8,27c0,1.7,1.3,3,3,3h25.1c1.7,0,3-1.3,3-3L-13.5-39z M-35.2-37h4.1h2h7.5h6.3
		l3.4,25c0,0.6-0.5,1-1,1h-25c-0.6,0-1-0.4-1-1L-35.2-37z"/>
</g>
<g>
	<path class="st6" d="M20.9-95.5c0-0.5,0.5-0.9,1.1-0.9l4.5,0c0.6,0,1,0.4,1,0.8v5.5h2l0-5.9c0-1.4-1.3-2.1-3-2.1H22
		c-1.7,0-3.1,0.9-3.1,2.3v5.7h2V-95.5z"/>
	<path class="st6" d="M36-88h-6h-2h-7.6h-2h-6L8.6-61c0,1.7,1.3,3,3,3h25.1c1.7,0,3-1.3,3-3L36-88z M14.3-86h4.1h2H28h6.3l3.4,25
		c0,0.5-0.5,1-1,1h-25c-0.6,0-1-0.5-1-1L14.3-86z"/>
</g>
<g>
	<path class="st5" d="M117-49c-6.6,0-12,5.4-12,12s5.4,12,12,12s12-5.4,12-12S123.6-49,117-49z M117-27c-5.5,0-10-4.5-10-10
		s4.5-10,10-10s10,4.5,10,10S122.5-27,117-27z"/>
	<path class="st5" d="M141.2-10.2l-15.5-15.6l1.6-1.6l15.5,15.6c0.3,0.3,0.3,0.8,0,1.1l-0.5,0.5C142-9.9,141.5-9.9,141.2-10.2z"/>
</g>
<g>
	<path class="st6" d="M116-97c-6.6,0-12,5.4-12,12s5.4,12,12,12s12-5.4,12-12S122.6-97,116-97z M116-75c-5.5,0-10-4.5-10-10
		s4.5-10,10-10s10,4.5,10,10S121.5-75,116-75z"/>
	<path class="st6" d="M140.2-58.2l-15.5-15.6l1.6-1.6l15.5,15.6c0.3,0.3,0.3,0.8,0,1.1l-0.5,0.5C141-57.9,140.5-57.9,140.2-58.2z"/>
</g>
<g>
	<path class="st5" d="M74-49c-4.4,0-8,3.6-8,8s3.6,8,8,8s8-3.6,8-8S78.4-49,74-49z M74-35.3c-3.2,0-5.7-2.6-5.7-5.7s2.6-5.7,5.7-5.7
		s5.7,2.6,5.7,5.7S77.1-35.3,74-35.3z"/>
	<g>
		<path class="st5" d="M89.7-11c-2.2-13.1-6.2-19.9-15.6-20c-9.4-0.1-13.8,6.8-15.9,20v0c-0.2,1,0.7,2,1.7,2h0h28h0
			C89.1-9,89.9-9.9,89.7-11L89.7-11z M61.5-11c-0.6,0-1.1-0.6-1-1.2C62.7-23.6,66.1-29,74.2-29s11.1,5.4,13.3,16.8
			c0.1,0.6-0.4,1.2-1,1.2H61.5z"/>
	</g>
</g>
<g>
	<path class="st6" d="M74.2-98c-4.4,0-8,3.6-8,8s3.6,8,8,8s8-3.6,8-8S78.6-98,74.2-98z M74.2-84.3c-3.2,0-5.7-2.6-5.7-5.7
		s2.6-5.7,5.7-5.7c3.2,0,5.7,2.6,5.7,5.7S77.4-84.3,74.2-84.3z"/>
	<g>
		<path class="st6" d="M89.9-60c-2.1-13.1-6.2-19.9-15.5-20c-9.4-0.1-13.8,6.8-15.9,20v0c-0.2,1,0.6,2,1.7,2h0h28h0
			C89.3-58,90.1-59,89.9-60L89.9-60z M61.7-60c-0.6,0-1.1-0.6-1-1.2C63-72.6,66.3-78,74.4-78s11.1,5.4,13.3,16.8
			c0.1,0.6-0.4,1.2-1,1.2L61.7-60z"/>
	</g>
</g>
<g>
	<path class="st7" d="M-15.7,17.6h-19.2c-0.2,0-0.3,0.3-0.3,0.5l0,0.2l-3.6,22.1c0,0.2,0.2,0.4,0.4,0.4h26.1c0.2,0,0.4-0.2,0.4-0.4
		l-3.4-22.3C-15.2,17.9-15.4,17.6-15.7,17.6z"/>
	<path class="st5" d="M-12.2,18c-0.1-1.9-1.6-3.4-3.4-3.4h-1.8h-1.4h-13h-1.3h-1.7c-1.8,0-3.3,1.5-3.3,3.4l-3.6,22.2l0,0.2
		c0,1.9,1.5,3.5,3.4,3.5h26.1c1.9,0,3.4-1.6,3.4-3.5L-12.2,18z M-12.3,41h-26.1c-0.2,0-0.4-0.2-0.4-0.4l3.6-22.1l0-0.2
		c0-0.2,0.1-0.5,0.4-0.5h19.2c0.2,0,0.4,0.2,0.4,0.5l3.4,22.3C-11.9,40.8-12.1,41-12.3,41z"/>
	<g>
		<path class="st5" d="M-28.9,9.7c0-1.7,0.8-2.7,1.1-2.7h4.7c0.4,0,1.1,1,1.1,2.7v3.4h3V9.7c0-3.2-1.8-5.7-4.1-5.7h-4.7
			c-2.3,0-4.1,2.5-4.1,5.7v3.4h3V9.7z"/>
	</g>
</g>
<circle class="st8" cx="74" cy="11.9" r="6.3"/>
<path class="st9" d="M88.1,42.5h-28c-0.6,0-1-0.5-1-1v-3.5c0-8.1,6.6-14.8,14.8-14.8h0.5c8.2,0,14.8,6.6,14.8,14.8v3.5
	C89.1,42,88.6,42.5,88.1,42.5z"/>
<circle class="st10" cx="117.6" cy="17.5" r="11.7"/>
<line class="st9" x1="129.3" y1="29.6" x2="141" y2="41.3"/>
<line class="st11" x1="-80.5" y1="-40" x2="-48.5" y2="-40"/>
<line class="st11" x1="-80.5" y1="-29" x2="-48.5" y2="-29"/>
<line class="st11" x1="-80.5" y1="-18" x2="-48.5" y2="-18"/>
<line class="st11" x1="10.8" y1="-15.6" x2="37.6" y2="-42.4"/>
<line class="st11" x1="37.6" y1="-15.6" x2="10.8" y2="-42.4"/>
<g>
	<line class="st12" x1="10.6" y1="37.4" x2="37.4" y2="10.6"/>
	<line class="st12" x1="37.4" y1="37.4" x2="10.6" y2="10.6"/>
</g>
</svg>
