<?xml version="1.0" encoding="utf-8"?>
<!-- Generator: Adobe Illustrator 27.0.1, SVG Export Plug-In . SVG Version: 6.00 Build 0)  -->
<svg version="1.1" id="레이어_1" xmlns="http://www.w3.org/2000/svg" xmlns:xlink="http://www.w3.org/1999/xlink" x="0px"
	 y="0px" viewBox="0 0 48 48" style="enable-background:new 0 0 48 48;" xml:space="preserve">
<style type="text/css">
	.st0{opacity:0.3;fill:#FF0066;}
	.st1{opacity:0.3;fill:#00E1FF;}
	.st2{fill:#FFFFFF;}
	.st3{fill:#222222;}
	.st4{fill:none;stroke:#222222;stroke-width:3;stroke-linecap:round;stroke-miterlimit:10;}
	.st5{fill:none;stroke:#222222;stroke-width:3;stroke-miterlimit:10;}
	.st6{fill:none;stroke:#222222;stroke-width:2.7;stroke-linecap:round;stroke-miterlimit:10;}
	.st7{fill:none;stroke:#222222;stroke-width:3;stroke-linecap:round;stroke-linejoin:round;stroke-miterlimit:10;}
</style>
<g>
	<rect x="-99.76" y="-53" class="st0" width="48" height="48"/>
	<rect x="-95.76" y="-49" class="st1" width="40" height="40"/>
</g>
<g>
	<rect x="-49.99" y="-53" class="st0" width="48" height="48"/>
	<rect x="-45.99" y="-49" class="st1" width="40" height="40"/>
</g>
<g>
	<rect x="0.01" y="-53" class="st0" width="48" height="48"/>
	<rect x="4.01" y="-49" class="st1" width="40" height="40"/>
</g>
<g>
	<rect x="-150.74" y="-48" class="st0" width="48" height="48"/>
	<rect x="-146.74" y="-44" class="st1" width="40" height="40"/>
</g>
<g>
	<rect x="-200.72" y="-48" class="st0" width="48" height="48"/>
	<rect x="-196.72" y="-44" class="st1" width="40" height="40"/>
</g>
<g>
	<rect x="-200.72" y="4.53" class="st0" width="48" height="48"/>
	<rect x="-196.72" y="8.53" class="st1" width="40" height="40"/>
</g>
<g>
	<path class="st2" d="M-79.11-46.53c0-0.47,0.51-0.86,1.09-0.86l4.55,0.01c0.58,0,1.05,0.38,1.05,0.85l0,5.54h2l-0.05-5.93
		c0-1.38-1.34-2.08-3.05-2.08h-4.5c-1.71,0-3.09,0.9-3.09,2.28V-41h2L-79.11-46.53z"/>
	<path class="st2" d="M-63.96-39h-6.03h-2h-7.55h-2h-5.97l-3.8,27c0,1.66,1.34,3,3,3h25.08c1.66,0,3-1.34,3-3L-63.96-39z M-85.67-37
		h4.13h2h7.55h6.34l3.4,25c0,0.55-0.45,1-1,1h-25.03c-0.55,0-1-0.45-1-1L-85.67-37z"/>
</g>
<g>
	<path class="st3" d="M-79.11-95.53c0-0.47,0.51-0.86,1.09-0.86l4.55,0.01c0.58,0,1.05,0.38,1.05,0.85l0,5.54h2l-0.05-5.93
		c0-1.38-1.34-2.08-3.05-2.08h-4.5c-1.71,0-3.09,0.9-3.09,2.28v5.72h2L-79.11-95.53z"/>
	<path class="st3" d="M-63.96-88h-6.03h-2h-7.55h-2h-5.97l-3.8,27c0,1.66,1.34,3,3,3h25.08c1.66,0,3-1.34,3-3L-63.96-88z M-85.67-86
		h4.13h2h7.55h6.34l3.4,25c0,0.55-0.45,1-1,1h-25.03c-0.55,0-1-0.45-1-1L-85.67-86z"/>
</g>
<g>
	<path class="st2" d="M17.01-49c-6.63,0-12,5.37-12,12s5.37,12,12,12s12-5.37,12-12S23.64-49,17.01-49z M17.01-27
		c-5.52,0-10-4.48-10-10s4.48-10,10-10s10,4.48,10,10S22.53-27,17.01-27z"/>
	<path class="st2" d="M41.24-10.21l-15.5-15.58l1.56-1.56l15.5,15.58c0.3,0.3,0.3,0.8,0,1.1l-0.46,0.46
		C42.04-9.9,41.55-9.9,41.24-10.21z"/>
</g>
<g>
	<path class="st3" d="M16.01-97.02c-6.63,0-12,5.37-12,12s5.37,12,12,12s12-5.37,12-12S22.64-97.02,16.01-97.02z M16.01-75.02
		c-5.52,0-10-4.48-10-10s4.48-10,10-10s10,4.48,10,10S21.53-75.02,16.01-75.02z"/>
	<path class="st3" d="M40.24-58.23l-15.5-15.58l1.56-1.56l15.5,15.58c0.3,0.3,0.3,0.8,0,1.1l-0.46,0.46
		C41.04-57.92,40.55-57.92,40.24-58.23z"/>
</g>
<g>
	<path class="st2" d="M-25.99-49c-4.42,0-8,3.58-8,8s3.58,8,8,8s8-3.58,8-8S-21.57-49-25.99-49z M-25.99-35.29
		c-3.16,0-5.71-2.56-5.71-5.71s2.56-5.71,5.71-5.71s5.71,2.56,5.71,5.71S-22.83-35.29-25.99-35.29z"/>
	<g>
		<path class="st2" d="M-10.25-11c-2.15-13.14-6.18-19.92-15.55-20c-9.44-0.08-13.82,6.81-15.93,20l0,0.01
			C-41.89-9.95-41.09-9-40.03-9h0.04h28h0.04C-10.89-9-10.08-9.95-10.25-11L-10.25-11z M-38.51-11c-0.63,0-1.11-0.57-0.99-1.19
			C-37.25-23.59-33.91-29-25.8-29s11.07,5.41,13.32,16.81c0.12,0.61-0.36,1.19-0.99,1.19H-38.51z"/>
	</g>
</g>
<g>
	<path class="st3" d="M-25.75-98c-4.42,0-8,3.58-8,8s3.58,8,8,8s8-3.58,8-8S-21.33-98-25.75-98z M-25.75-84.29
		c-3.16,0-5.71-2.56-5.71-5.71s2.56-5.71,5.71-5.71s5.71,2.56,5.71,5.71S-22.59-84.29-25.75-84.29z"/>
	<g>
		<path class="st3" d="M-10.01-60c-2.15-13.14-6.18-19.92-15.55-20c-9.44-0.08-13.82,6.81-15.93,20l0,0.01
			c-0.17,1.05,0.64,1.99,1.7,1.99h0.04h28h0.04C-10.65-58-9.84-58.95-10.01-60L-10.01-60z M-38.27-60c-0.63,0-1.11-0.57-0.99-1.19
			C-37.01-72.59-33.67-78-25.56-78s11.07,5.41,13.32,16.81c0.12,0.61-0.36,1.19-0.99,1.19H-38.27z"/>
	</g>
</g>
<g>
	<path class="st4" d="M-69.98,9.74c0-2.33-1.42-4.22-3.16-4.22h-5.67c-1.75,0-3.16,1.89-3.16,4.22v4.87h12V9.74z"/>
	<path class="st5" d="M-64.36,16.75c0-1.18-0.86-2.14-1.93-2.14h-3.69v0h-12v0h-3.55c-1.07,0-1.85,0.96-1.85,2.14l-3.59,23.56
		c0,1.18,0.87,2.14,1.94,2.14h26.12c1.07,0,1.94-0.96,1.94-2.14L-64.36,16.75z"/>
</g>
<circle class="st6" cx="-25.98" cy="11.86" r="6.34"/>
<path class="st7" d="M-11.89,42.45h-27.96c-0.56,0-1.02-0.46-1.02-1.02V37.9c0-8.15,6.61-14.76,14.76-14.76h0.47
	c8.15,0,14.76,6.61,14.76,14.76v3.54C-10.87,42-11.32,42.45-11.89,42.45z"/>
<circle class="st5" cx="17.67" cy="17.53" r="11.74"/>
<line class="st7" x1="29.33" y1="29.58" x2="41.06" y2="41.32"/>
</svg>
