<?xml version="1.0" encoding="utf-8"?>
<!-- Generator: Adobe Illustrator 27.0.1, SVG Export Plug-In . SVG Version: 6.00 Build 0)  -->
<svg version="1.1" id="레이어_1" xmlns="http://www.w3.org/2000/svg" xmlns:xlink="http://www.w3.org/1999/xlink" x="0px"
	 y="0px" viewBox="0 0 48 48" style="enable-background:new 0 0 48 48;" xml:space="preserve">
<style type="text/css">
	.st0{opacity:0.3;fill:#FF0066;}
	.st1{opacity:0.3;fill:#00E1FF;}
	.st2{fill:#FFFFFF;}
	.st3{fill:#222222;}
	.st4{fill:none;stroke:#FFFFFF;stroke-width:3;stroke-linecap:round;stroke-miterlimit:10;}
	.st5{fill:none;stroke:#FFFFFF;stroke-width:3;stroke-miterlimit:10;}
	.st6{fill:none;stroke:#FFFFFF;stroke-width:2.7;stroke-linecap:round;stroke-miterlimit:10;}
	.st7{fill:none;stroke:#FFFFFF;stroke-width:3;stroke-linecap:round;stroke-linejoin:round;stroke-miterlimit:10;}
</style>
<g>
	<rect x="-49.78" y="-53" class="st0" width="48" height="48"/>
	<rect x="-45.78" y="-49" class="st1" width="40" height="40"/>
</g>
<g>
	<rect x="-0.01" y="-53" class="st0" width="48" height="48"/>
	<rect x="3.99" y="-49" class="st1" width="40" height="40"/>
</g>
<g>
	<rect x="49.99" y="-53" class="st0" width="48" height="48"/>
	<rect x="53.99" y="-49" class="st1" width="40" height="40"/>
</g>
<g>
	<rect x="-100.76" y="-48" class="st0" width="48" height="48"/>
	<rect x="-96.76" y="-44" class="st1" width="40" height="40"/>
</g>
<g>
	<rect x="-150.74" y="-48" class="st0" width="48" height="48"/>
	<rect x="-146.74" y="-44" class="st1" width="40" height="40"/>
</g>
<g>
	<rect x="-150.74" y="4.53" class="st0" width="48" height="48"/>
	<rect x="-146.74" y="8.53" class="st1" width="40" height="40"/>
</g>
<g>
	<path class="st2" d="M-29.13-46.53c0-0.47,0.51-0.86,1.09-0.86l4.55,0.01c0.58,0,1.05,0.38,1.05,0.85l0,5.54h2l-0.05-5.93
		c0-1.38-1.34-2.08-3.05-2.08h-4.5c-1.71,0-3.09,0.9-3.09,2.28V-41h2L-29.13-46.53z"/>
	<path class="st2" d="M-13.98-39h-6.03h-2h-7.55h-2h-5.97l-3.8,27c0,1.66,1.34,3,3,3h25.08c1.66,0,3-1.34,3-3L-13.98-39z M-35.69-37
		h4.13h2h7.55h6.34l3.4,25c0,0.55-0.45,1-1,1H-38.3c-0.55,0-1-0.45-1-1L-35.69-37z"/>
</g>
<g>
	<path class="st3" d="M-29.13-95.53c0-0.47,0.51-0.86,1.09-0.86l4.55,0.01c0.58,0,1.05,0.38,1.05,0.85l0,5.54h2l-0.05-5.93
		c0-1.38-1.34-2.08-3.05-2.08h-4.5c-1.71,0-3.09,0.9-3.09,2.28v5.72h2L-29.13-95.53z"/>
	<path class="st3" d="M-13.98-88h-6.03h-2h-7.55h-2h-5.97l-3.8,27c0,1.66,1.34,3,3,3h25.08c1.66,0,3-1.34,3-3L-13.98-88z M-35.69-86
		h4.13h2h7.55h6.34l3.4,25c0,0.55-0.45,1-1,1H-38.3c-0.55,0-1-0.45-1-1L-35.69-86z"/>
</g>
<g>
	<path class="st2" d="M66.99-49c-6.63,0-12,5.37-12,12s5.37,12,12,12s12-5.37,12-12S73.62-49,66.99-49z M66.99-27
		c-5.52,0-10-4.48-10-10s4.48-10,10-10s10,4.48,10,10S72.51-27,66.99-27z"/>
	<path class="st2" d="M91.22-10.21l-15.5-15.58l1.56-1.56l15.5,15.58c0.3,0.3,0.3,0.8,0,1.1l-0.46,0.46
		C92.02-9.9,91.53-9.9,91.22-10.21z"/>
</g>
<g>
	<path class="st3" d="M65.99-97.02c-6.63,0-12,5.37-12,12s5.37,12,12,12s12-5.37,12-12S72.62-97.02,65.99-97.02z M65.99-75.02
		c-5.52,0-10-4.48-10-10s4.48-10,10-10s10,4.48,10,10S71.51-75.02,65.99-75.02z"/>
	<path class="st3" d="M90.22-58.23l-15.5-15.58l1.56-1.56l15.5,15.58c0.3,0.3,0.3,0.8,0,1.1l-0.46,0.46
		C91.02-57.92,90.53-57.92,90.22-58.23z"/>
</g>
<g>
	<path class="st2" d="M23.99-49c-4.42,0-8,3.58-8,8s3.58,8,8,8s8-3.58,8-8S28.41-49,23.99-49z M23.99-35.29
		c-3.16,0-5.71-2.56-5.71-5.71s2.56-5.71,5.71-5.71s5.71,2.56,5.71,5.71S27.15-35.29,23.99-35.29z"/>
	<g>
		<path class="st2" d="M39.73-11c-2.15-13.14-6.18-19.92-15.55-20c-9.44-0.08-13.82,6.81-15.93,20l0,0.01C8.08-9.95,8.89-9,9.95-9
			h0.04h28h0.04C39.09-9,39.9-9.95,39.73-11L39.73-11z M11.47-11c-0.63,0-1.11-0.57-0.99-1.19C12.73-23.59,16.07-29,24.18-29
			s11.07,5.41,13.32,16.81c0.12,0.61-0.36,1.19-0.99,1.19H11.47z"/>
	</g>
</g>
<g>
	<path class="st3" d="M24.23-98c-4.42,0-8,3.58-8,8s3.58,8,8,8s8-3.58,8-8S28.65-98,24.23-98z M24.23-84.29
		c-3.16,0-5.71-2.56-5.71-5.71s2.56-5.71,5.71-5.71s5.71,2.56,5.71,5.71S27.39-84.29,24.23-84.29z"/>
	<g>
		<path class="st3" d="M39.97-60c-2.15-13.14-6.18-19.92-15.55-20c-9.44-0.08-13.82,6.81-15.93,20l0,0.01
			C8.32-58.95,9.13-58,10.19-58h0.04h28h0.04C39.33-58,40.14-58.95,39.97-60L39.97-60z M11.71-60c-0.63,0-1.11-0.57-0.99-1.19
			C12.97-72.59,16.31-78,24.42-78s11.07,5.41,13.32,16.81c0.12,0.61-0.36,1.19-0.99,1.19H11.71z"/>
	</g>
</g>
<g>
	<path class="st4" d="M-20,9.74c0-2.33-1.42-4.22-3.16-4.22h-5.67c-1.75,0-3.16,1.89-3.16,4.22v4.87h12V9.74z"/>
	<path class="st5" d="M-14.38,16.75c0-1.18-0.86-2.14-1.93-2.14H-20v0h-12v0h-3.55c-1.07,0-1.85,0.96-1.85,2.14l-3.59,23.56
		c0,1.18,0.87,2.14,1.94,2.14h26.12c1.07,0,1.94-0.96,1.94-2.14L-14.38,16.75z"/>
</g>
<circle class="st6" cx="24" cy="11.86" r="6.34"/>
<path class="st7" d="M38.09,42.45H10.13c-0.56,0-1.02-0.46-1.02-1.02V37.9c0-8.15,6.61-14.76,14.76-14.76h0.47
	c8.15,0,14.76,6.61,14.76,14.76v3.54C39.11,42,38.65,42.45,38.09,42.45z"/>
<circle class="st5" cx="67.65" cy="17.53" r="11.74"/>
<line class="st7" x1="79.31" y1="29.58" x2="91.04" y2="41.32"/>
</svg>
