<svg width="227" height="34" viewBox="0 0 227 34" fill="none" xmlns="http://www.w3.org/2000/svg">
<path d="M31.2408 0H40.5678V1.29479C40.3995 1.29479 40.17 1.29479 39.8945 1.27139C39.6114 1.25579 39.1064 1.27139 38.3719 1.33379C37.6373 1.38839 37.0023 1.49759 36.4514 1.65359C35.9005 1.80959 35.4031 2.07479 34.9517 2.44919C34.5003 2.82358 34.2784 3.29938 34.2784 3.86878V29.6944C34.2784 30.5836 34.7987 31.2466 35.8393 31.6756C36.8799 32.1046 37.9357 32.3074 39.0069 32.2762H40.5678V33.571H25.3262V32.2762C25.4945 32.2762 25.7164 32.2762 25.9995 32.2996C26.2826 32.3152 26.78 32.2996 27.4992 32.2372C28.2184 32.1826 28.8535 32.0734 29.3968 31.9174C29.9477 31.7614 30.445 31.4962 30.8964 31.1218C31.3479 30.7474 31.5698 30.2794 31.5698 29.7022V3.31498L19.0367 34L6.84037 3.22918V29.6944C6.84037 30.5836 7.2918 31.2466 8.19467 31.6756C9.09754 32.1046 9.99276 32.3074 10.8956 32.2762H12.2499V33.571H0V32.2762C0.137726 32.2762 0.329011 32.2762 0.566205 32.2996C0.803399 32.3152 1.23953 32.2996 1.8746 32.2372C2.50967 32.1826 3.05292 32.0734 3.51965 31.9174C3.98639 31.7614 4.41487 31.4962 4.80509 31.1218C5.19532 30.7474 5.39425 30.2794 5.39425 29.7022V3.87658C5.39425 2.98738 4.94282 2.32439 4.03995 1.89539C3.13708 1.46639 2.24187 1.26359 1.339 1.29479H0V0H8.90625L19.6718 28.5712L31.2408 0Z" fill="black"/>
<path d="M53.6134 12.9088C52.2055 12.9088 51.1343 13.1194 50.4074 13.5328C49.6729 13.9462 49.2291 14.4532 49.0761 15.0382C48.9231 15.6232 48.8159 16.216 48.7624 16.801C48.7088 17.386 48.5099 17.893 48.1732 18.3064C47.8366 18.7198 47.2551 18.9304 46.444 18.9304C46.0232 18.9304 45.633 18.79 45.281 18.5014C44.929 18.2128 44.753 17.7838 44.753 17.2144C44.753 15.9196 45.633 14.6716 47.3928 13.447C49.1526 12.2302 51.2261 11.6218 53.621 11.6218C56.0159 11.6218 57.9823 12.1444 59.6197 13.1896C61.2495 14.2348 62.0682 15.8494 62.0682 18.0334V29.2653C62.0682 30.9891 62.6268 31.8471 63.7592 31.8471C64.3789 31.8471 64.8992 31.5975 65.32 31.0905C65.7409 30.5913 66.0087 30.0921 66.1234 29.6085L66.2918 28.8363L67.1793 29.2653C66.0852 32.4243 64.662 33.9999 62.9175 33.9999C61.8769 33.9999 61.0506 33.6021 60.4461 32.8143C59.8416 32.0265 59.5356 30.9813 59.5356 29.6943L59.9564 25.8645C59.8722 26.1843 59.7651 26.5431 59.6427 26.9643C59.5126 27.3777 59.2066 28.0407 58.7169 28.9455C58.2272 29.8503 57.6533 30.6459 57.0106 31.3323C56.3602 32.0187 55.4421 32.6349 54.2484 33.1809C53.0548 33.7269 51.7235 33.9999 50.2621 33.9999C48.4334 33.9999 46.8495 33.5163 45.5105 32.5569C44.1715 31.5975 43.5059 30.1935 43.5059 28.3605C43.5059 26.8083 43.8961 25.5603 44.6842 24.5931C45.4723 23.6338 46.467 22.9786 47.6606 22.6354C48.8542 22.2922 50.1473 21.9958 51.5245 21.754C52.9018 21.5122 54.1872 21.325 55.3885 21.1924C56.5821 21.0676 57.5768 20.7322 58.3649 20.2018C59.153 19.6714 59.5432 18.946 59.5432 18.0256C59.5432 16.6762 59.0076 15.4906 57.9364 14.4532C56.8652 13.4236 55.4268 12.901 53.6287 12.901L53.6134 12.9088ZM59.5203 22.378V21.0442C58.7016 21.559 57.6763 21.9256 56.4368 22.144C55.1972 22.3624 54.0648 22.5028 53.0395 22.573C52.0142 22.6432 51.0119 22.7992 50.0402 23.0488C49.0684 23.2906 48.3033 23.8132 47.7371 24.6009C47.1709 25.3887 46.8954 26.5197 46.8954 27.9783C46.8954 29.6163 47.3163 30.8097 48.1579 31.5741C48.9996 32.3385 50.1167 32.7129 51.4939 32.7129C52.8712 32.7129 54.1107 32.3229 55.2125 31.5507C56.3067 30.7785 57.156 29.8191 57.7451 28.6647C58.3343 27.5181 58.7781 26.3949 59.0765 25.3107C59.3749 24.2188 59.5203 23.2438 59.5203 22.3858V22.378Z" fill="black"/>
<path d="M67.1185 13.3379V12.0431H68.3886C72.046 12.0431 73.8747 8.72812 73.8747 2.10596H75.1448V12.0509H83.6303V13.3457H75.1448V26.2546C75.1448 28.0876 75.4279 29.4838 75.9865 30.4276C76.5527 31.3714 77.5321 31.8472 78.9399 31.8472C79.8964 31.8472 80.7304 31.6132 81.4496 31.1374C82.1688 30.6616 82.7121 30.0922 83.0717 29.4136C83.439 28.7428 83.7221 28.0642 83.9363 27.3934C84.1506 26.7226 84.2806 26.1376 84.3342 25.654L84.4184 24.9676L85.26 25.3966C85.1223 26.2 84.9157 27.0268 84.6479 27.8692C84.3801 28.7194 83.9822 29.632 83.4466 30.6226C82.911 31.6132 82.1765 32.4244 81.2507 33.0562C80.3248 33.688 79.2689 34 78.083 34C76.392 34 75.0607 33.3916 74.0736 32.1748C73.0866 30.958 72.5969 29.2732 72.5969 27.1204V13.3379H67.1108H67.1185Z" fill="black"/>
<path d="M91.603 11.622V29.6945C91.603 30.2717 91.7561 30.7397 92.0698 31.1141C92.3758 31.4885 92.7201 31.7537 93.0798 31.9097C93.447 32.0657 93.8679 32.1749 94.3499 32.2295C94.8243 32.2841 95.1686 32.3075 95.3599 32.2919C95.5588 32.2763 95.7119 32.2685 95.8266 32.2685V33.5633H84.8545V32.2685H85.9104C86.6143 32.2997 87.3259 32.0969 88.0451 31.6679C88.7644 31.2389 89.124 30.5759 89.124 29.6867V18.9306C89.124 18.33 89.0628 17.823 88.9327 17.4252C88.8026 17.0274 88.6037 16.7154 88.3206 16.497C88.0375 16.2786 87.6396 16.263 87.1193 16.4346C86.599 16.6062 85.9869 17.0118 85.283 17.6436L84.8621 16.3488L91.6183 11.6142L91.603 11.622ZM89.4912 6.88745C90.1646 6.88745 90.7537 6.66125 91.2664 6.20105C91.7714 5.74085 92.0239 5.10906 92.0239 4.30566C92.0239 3.50227 91.7714 2.87047 91.2664 2.41027C90.7614 1.95008 90.1722 1.72388 89.4912 1.72388C88.8103 1.72388 88.2211 1.95008 87.7161 2.41027C87.2111 2.87047 86.9586 3.50227 86.9586 4.30566C86.9586 5.10906 87.2111 5.74085 87.7161 6.20105C88.2211 6.66125 88.8103 6.88745 89.4912 6.88745Z" fill="black"/>
<path d="M117.358 16.3564V29.6943C117.358 30.5835 117.71 31.2465 118.414 31.6755C119.118 32.1045 119.821 32.3073 120.525 32.2761H121.581V33.5709H110.602V32.2761C110.716 32.2761 110.869 32.2761 111.068 32.2995C111.267 32.3151 111.604 32.2995 112.078 32.2371C112.553 32.1825 112.981 32.0733 113.348 31.9173C113.716 31.7613 114.052 31.4961 114.358 31.1217C114.664 30.7473 114.825 30.2793 114.825 29.7021V18.946C114.825 17.3392 114.42 16.1458 113.601 15.3736C112.782 14.6014 111.787 14.2114 110.602 14.2114C108.941 14.2114 107.472 14.9836 106.187 16.5358C104.909 18.088 104.266 19.7494 104.266 21.5278V29.7021C104.266 30.5913 104.618 31.2543 105.322 31.6833C106.026 32.1123 106.73 32.3151 107.434 32.2839H108.49V33.5787H97.5176V32.2839C97.6323 32.2839 97.7854 32.2839 97.9843 32.3073C98.1833 32.3229 98.5276 32.3073 99.0173 32.2449C99.507 32.1903 99.9354 32.0811 100.303 31.9251C100.67 31.7691 101.007 31.5039 101.313 31.1295C101.619 30.7551 101.779 30.2871 101.779 29.7099V18.9538C101.779 18.3532 101.718 17.8462 101.588 17.4484C101.458 17.0506 101.259 16.7386 100.976 16.5202C100.693 16.3018 100.295 16.2862 99.7747 16.4578C99.2544 16.6294 98.6423 17.035 97.9384 17.6668L97.5176 16.372L105.536 11.6375L103.845 18.5248C105.337 16.1146 106.753 14.3674 108.084 13.2754C109.423 12.1834 110.823 11.6375 112.285 11.6375C113.915 11.6375 115.169 12.082 116.042 12.9712C116.914 13.8604 117.35 14.9914 117.35 16.372L117.358 16.3564Z" fill="black"/>
<path d="M166.901 4.30557L158.629 12.7373L169.9 30.1234C170.405 30.8956 171.155 31.465 172.134 31.8238C173.121 32.1826 173.978 32.3464 174.713 32.3152L175.815 32.2684V33.5632H162.264V32.2684C162.317 32.2684 162.409 32.2684 162.539 32.2918C162.662 32.3074 162.891 32.323 163.213 32.3386C163.534 32.3542 163.848 32.3386 164.138 32.3152C164.437 32.284 164.774 32.245 165.148 32.1826C165.531 32.128 165.837 32.0344 166.074 31.9018C166.311 31.7692 166.518 31.621 166.686 31.4494C166.855 31.2778 166.924 31.036 166.901 30.7162C166.87 30.4042 166.732 30.0532 166.48 29.6866L156.77 14.6249L151.789 19.7027V29.6866C151.789 30.5758 152.309 31.2388 153.35 31.6678C154.391 32.0968 155.431 32.2996 156.472 32.2684H158.033V33.5632H142.837V32.2684C143.005 32.2684 143.227 32.2684 143.51 32.2918C143.793 32.3074 144.291 32.2918 145.01 32.2294C145.729 32.1748 146.357 32.0656 146.907 31.9096C147.458 31.7536 147.956 31.4884 148.407 31.114C148.859 30.7396 149.08 30.2716 149.08 29.6944V3.87658C149.08 2.98738 148.56 2.32439 147.52 1.89539C146.479 1.46639 145.438 1.26359 144.398 1.29479H142.837V0H158.033V1.29479C157.864 1.29479 157.635 1.29479 157.359 1.27139C157.076 1.25579 156.579 1.27139 155.86 1.33379C155.14 1.38839 154.505 1.49759 153.962 1.65359C153.411 1.80959 152.914 2.07479 152.462 2.44919C152.011 2.82358 151.789 3.29938 151.789 3.86878V17.9477L164.789 4.30557C165.799 3.21358 166.105 2.41019 165.699 1.89539C165.294 1.38059 164.146 1.17779 162.256 1.29479V0H174.078V1.29479C172.303 1.20899 170.964 1.38059 170.045 1.80959C169.127 2.23859 168.079 3.07318 166.901 4.30557Z" fill="black"/>
<path d="M183.366 11.622V29.6945C183.366 30.2717 183.519 30.7397 183.833 31.1141C184.139 31.4885 184.483 31.7537 184.843 31.9097C185.21 32.0657 185.631 32.1749 186.113 32.2295C186.587 32.2841 186.932 32.3075 187.123 32.2919C187.322 32.2763 187.475 32.2685 187.59 32.2685V33.5633H176.618V32.2685H177.674C178.378 32.2997 179.089 32.0969 179.808 31.6679C180.528 31.2389 180.887 30.5759 180.887 29.6867V18.9306C180.887 18.33 180.826 17.823 180.696 17.4252C180.566 17.0274 180.367 16.7154 180.084 16.497C179.801 16.2786 179.403 16.263 178.882 16.4346C178.362 16.6062 177.75 17.0118 177.046 17.6436L176.625 16.3488L183.382 11.6142L183.366 11.622ZM181.254 6.88745C181.928 6.88745 182.517 6.66125 183.03 6.20105C183.535 5.74085 183.787 5.10906 183.787 4.30566C183.787 3.50227 183.535 2.87047 183.03 2.41027C182.525 1.95008 181.935 1.72388 181.254 1.72388C180.573 1.72388 179.992 1.95008 179.479 2.41027C178.974 2.87047 178.722 3.50227 178.722 4.30566C178.722 5.10906 178.974 5.74085 179.479 6.20105C179.984 6.66125 180.573 6.88745 181.254 6.88745Z" fill="black"/>
<path d="M221.784 16.3564V29.6943C221.784 30.5835 222.136 31.2465 222.84 31.6755C223.544 32.1045 224.248 32.3073 224.952 32.2761H226.007V33.5709H215.074V32.2761C215.188 32.2761 215.341 32.2761 215.54 32.2995C215.739 32.3151 216.076 32.2995 216.55 32.2371C217.025 32.1825 217.453 32.0733 217.813 31.9173C218.18 31.7613 218.517 31.4961 218.823 31.1217C219.129 30.7473 219.29 30.2793 219.29 29.7021V18.946C219.29 17.3392 218.884 16.1458 218.065 15.3736C217.247 14.6014 216.252 14.2114 215.066 14.2114C213.406 14.2114 211.929 14.9836 210.636 16.5358C209.343 18.088 208.692 19.7494 208.692 21.5278V29.7021C208.692 30.5913 209.044 31.2543 209.748 31.6833C210.452 32.1123 211.156 32.3151 211.86 32.2839H212.916V33.5787H201.944V32.2839C202.059 32.2839 202.212 32.2839 202.411 32.3073C202.609 32.3229 202.946 32.3073 203.42 32.2449C203.895 32.1903 204.323 32.0811 204.691 31.9251C205.058 31.7691 205.395 31.5039 205.701 31.1295C206.007 30.7551 206.167 30.2871 206.167 29.7099V18.9538C206.167 17.347 205.754 16.1536 204.943 15.3814C204.124 14.6092 203.13 14.2192 201.944 14.2192C200.283 14.2192 198.814 14.9914 197.529 16.5436C196.251 18.0958 195.608 19.7572 195.608 21.5356V29.7099C195.608 30.5991 195.96 31.2621 196.664 31.6911C197.368 32.1201 198.072 32.3229 198.776 32.2917H199.832V33.5865H188.86V32.2917C188.975 32.2917 189.128 32.2917 189.327 32.3151C189.526 32.3307 189.862 32.3151 190.337 32.2527C190.811 32.1981 191.239 32.0889 191.607 31.9329C191.974 31.7769 192.311 31.5117 192.617 31.1373C192.923 30.7629 193.083 30.2949 193.083 29.7177V18.9616C193.083 18.1582 192.976 17.5186 192.77 17.0428C192.555 16.567 192.158 16.3564 191.568 16.3954C190.979 16.4422 190.214 16.8634 189.288 17.6668L188.868 16.372L196.886 11.6375L195.195 18.5248C196.687 16.1458 198.11 14.3986 199.457 13.2988C200.811 12.1912 202.212 11.6453 203.681 11.6453C205.287 11.6453 206.519 12.0898 207.399 12.979C208.272 13.8682 208.708 14.9992 208.708 16.3798V17.8852C210.115 15.7324 211.462 14.1568 212.74 13.1506C214.018 12.1444 215.349 11.6453 216.726 11.6453C218.356 11.6453 219.611 12.0898 220.483 12.979C221.355 13.8682 221.792 14.9992 221.792 16.3798L221.784 16.3564Z" fill="black"/>
</svg>
