<svg width="213" height="34" viewBox="0 0 213 34" fill="none" xmlns="http://www.w3.org/2000/svg">
<g clip-path="url(#clip0_1927_13525)">
<path d="M28.9524 24.342C28.0625 24.1967 27.4725 24.0158 27.1824 23.7994C26.8922 23.583 26.7374 23.2438 26.7149 22.7884C26.5698 19.2449 26.444 16.2765 26.3344 13.8894C26.2248 11.5024 26.1345 9.59018 26.0636 8.15602C25.9927 6.72185 25.9379 5.69791 25.9024 5.08096C25.8669 4.46725 25.8476 4.14747 25.8476 4.12163C25.8476 3.7857 25.9927 3.51437 26.2796 3.30764C26.5698 3.10414 27.1469 2.93941 28.0109 2.8199C28.2528 2.79729 28.372 2.59056 28.372 2.20618C28.372 2.06082 28.3463 1.87025 28.3011 1.62799C27.9884 1.65383 27.6434 1.67644 27.2726 1.69905C26.8986 1.72489 26.5311 1.74104 26.17 1.75396C25.8089 1.76688 25.4736 1.77981 25.1608 1.7895C24.8481 1.80242 24.5934 1.80888 24.4032 1.80888C23.9712 1.80888 23.6326 1.82826 23.3908 1.86379C23.149 1.89932 22.9588 1.94131 22.8137 1.98976C22.6686 2.03821 22.5654 2.10928 22.5074 2.20618C22.4462 2.30308 22.3913 2.39998 22.3462 2.49689L15.0178 20.5467L7.29291 2.49689C7.24454 2.39998 7.18973 2.30308 7.1317 2.20618C7.07044 2.10928 6.9705 2.03821 6.82541 1.98976C6.68033 1.94131 6.48688 1.89932 6.2483 1.86379C6.00649 1.82826 5.67119 1.80888 5.23593 1.80888C5.01992 1.80888 4.72975 1.80242 4.36865 1.7895C4.00755 1.77658 3.63033 1.76688 3.23054 1.75396C2.83398 1.74104 2.43742 1.72489 2.03763 1.69905C1.64106 1.67644 1.28641 1.6506 0.973677 1.62799C0.925316 1.87025 0.902747 2.06082 0.902747 2.20618C0.902747 2.59379 1.02204 2.79729 1.26385 2.8199C2.10533 2.96525 2.67922 3.12676 2.97906 3.30764C3.27891 3.48853 3.43044 3.77278 3.43044 4.15716C3.43044 4.183 3.41109 4.62229 3.37563 5.47827C3.34016 6.33424 3.2918 7.41955 3.23054 8.7342C3.16929 10.0489 3.1048 11.4766 3.03065 13.0205C2.95972 14.5645 2.89201 16.0213 2.83076 17.3973C2.7695 18.7701 2.71791 19.9588 2.66955 20.9601C2.62119 21.9615 2.59862 22.5687 2.59862 22.7851C2.55026 23.2438 2.3278 23.5862 1.93123 23.8155C1.53467 24.0449 1.00914 24.2193 0.361099 24.3388C0.119292 24.3873 0 24.5811 0 24.917C0 25.0623 0.0225687 25.2561 0.0709301 25.4952C0.648043 25.4467 1.26062 25.4047 1.91189 25.3692C2.55993 25.3337 3.07901 25.3143 3.4659 25.3143C3.94629 25.3143 4.50084 25.3337 5.12631 25.3692C5.75179 25.4047 6.39016 25.4467 7.0382 25.4952C7.08656 25.2529 7.10913 25.0623 7.10913 24.917C7.10913 24.5552 6.98984 24.3614 6.74803 24.3388C5.11019 24.0481 4.29127 23.5313 4.29127 22.7851C4.29127 22.7367 4.31062 22.3038 4.34608 21.4834C4.38155 20.663 4.42991 19.6519 4.49117 18.4439C4.55242 17.239 4.61691 15.9244 4.69106 14.4999C4.76199 13.0787 4.8297 11.7285 4.89095 10.4494C4.95221 9.17027 5.00057 8.0688 5.03604 7.13854C5.0715 6.2115 5.10052 5.62685 5.12631 5.38459L13.97 25.7116C14.0184 25.7342 14.1248 25.7471 14.2956 25.7471C14.4407 25.7471 14.5536 25.6922 14.6374 25.5856C14.7212 25.4758 14.8115 25.3143 14.9082 25.0979L22.8137 5.96278C22.8137 6.15659 22.8363 6.69278 22.8846 7.57137C22.933 8.45319 22.9878 9.49974 23.0458 10.7175C23.1071 11.9352 23.1651 13.2305 23.2264 14.6065C23.2876 15.9793 23.3457 17.2584 23.4069 18.4406C23.4682 19.6229 23.5166 20.6242 23.552 21.4414C23.5875 22.2618 23.6068 22.7076 23.6068 22.7787C23.6068 23.2373 23.4327 23.5636 23.0845 23.7542C22.7363 23.948 22.0786 24.1418 21.1178 24.3323C20.876 24.3323 20.7567 24.5261 20.7567 24.9105C20.7567 25.0559 20.7793 25.2497 20.8277 25.4887C21.1178 25.4629 21.4531 25.4403 21.8368 25.4177C22.2205 25.395 22.6138 25.3757 23.0104 25.3627C23.4069 25.3498 23.7874 25.3369 24.1485 25.3272C24.5096 25.3143 24.8094 25.3078 25.0512 25.3078C25.6283 25.3078 26.2603 25.3272 26.947 25.3627C27.6337 25.3983 28.3978 25.4403 29.2393 25.4887C29.2877 25.2465 29.3103 25.0559 29.3103 24.9105C29.3103 24.7652 29.2812 24.6392 29.22 24.5294C29.1587 24.4196 29.0684 24.355 28.9492 24.3291L28.9524 24.342Z" fill="white"/>
<path d="M82.5917 21.703C82.4014 21.703 82.2209 21.787 82.0532 21.9549C81.5728 22.5105 80.9796 22.966 80.2735 23.3277C79.5642 23.6895 78.8259 23.8704 78.0586 23.8704C77.1945 23.8704 76.4207 23.7089 75.7372 23.3826C75.0537 23.0564 74.4702 22.6042 73.993 22.026C73.5126 21.4478 73.1418 20.7598 72.8775 19.9652C72.6131 19.1706 72.4809 18.3017 72.4809 17.3617L82.9141 16.8901C83.0592 16.8901 83.1301 16.8191 83.1301 16.6737C83.1301 14.5774 82.6174 12.8751 81.5954 11.5734C80.5734 10.2717 78.942 9.6192 76.7045 9.6192C75.8597 9.6192 74.9892 9.8227 74.0865 10.2329C73.1837 10.6431 72.3584 11.2149 71.6136 11.9513C70.8688 12.6878 70.2595 13.5728 69.792 14.6097C69.3245 15.6466 69.0891 16.7803 69.0891 18.011C69.0891 19.3127 69.289 20.4465 69.6856 21.4123C70.0822 22.3781 70.6109 23.1856 71.2751 23.8349C71.936 24.4873 72.7001 24.9686 73.5674 25.2819C74.4347 25.5953 75.3471 25.7535 76.3111 25.7535C77.2751 25.7535 78.0811 25.6566 78.8033 25.4628C79.5255 25.269 80.1671 25.0106 80.7346 24.6844C81.2988 24.3581 81.7889 23.9931 82.1983 23.5797C82.6078 23.1695 82.9689 22.7463 83.2816 22.3135C83.0656 21.9033 82.8367 21.6998 82.5981 21.6998L82.5917 21.703ZM73.4159 12.3357C74.0865 11.3958 75.0215 10.9242 76.2176 10.9242C76.8173 10.9242 77.3364 11.0631 77.7813 11.3408C78.223 11.6186 78.5906 11.9675 78.8775 12.3906C79.1644 12.8138 79.3805 13.2757 79.5255 13.7828C79.6674 14.2899 79.7416 14.7712 79.7416 15.2299C79.7416 15.5432 79.561 15.7015 79.2031 15.7015L72.4132 16.0277C72.4132 14.5096 72.7485 13.2789 73.4191 12.3389L73.4159 12.3357Z" fill="white"/>
<path d="M68.3637 24.4874C67.6899 24.3679 67.1676 24.2225 66.7936 24.0546C66.4196 23.8866 66.2326 23.6088 66.2326 23.2212V13.237C66.2326 12.465 66.2681 11.1083 66.3422 10.64C66.4132 10.1684 66.4389 9.89381 66.4389 9.55465C66.4389 9.19288 66.2681 9.01199 65.9295 9.01199C65.7329 9.01199 65.1461 9.04106 64.5754 9.05721C64.3175 9.06367 63.7243 9.04752 62.9021 8.97969C62.2734 8.92801 61.635 9.07336 61.1095 9.42544C60.6162 9.75491 60.0327 10.0392 59.4459 10.275C58.0112 10.8531 56.4056 10.795 54.9934 10.1716C54.9031 10.1328 54.8129 10.0941 54.7194 10.0553C53.9972 9.7646 53.0331 9.62248 51.8306 9.62248C51.0374 9.62248 50.283 9.76137 49.5737 10.0392C48.8644 10.3169 48.2325 10.6981 47.6779 11.1794C47.1234 11.6607 46.6849 12.2162 46.3593 12.8429C46.0336 13.4695 45.8724 14.122 45.8724 14.7971C45.8724 15.8081 46.0723 16.6609 46.4689 17.3489C46.7623 17.8592 47.1363 18.2921 47.5812 18.6506C47.794 18.8186 47.7714 19.1416 47.5393 19.2805C46.3077 20.0072 45.6919 20.8987 45.6919 21.9614C45.6919 22.5009 45.808 22.9789 46.0433 23.3956C46.2303 23.7283 45.9659 24.1321 45.5887 24.1062C43.6994 23.9738 42.7225 22.8853 42.4065 21.4899C42.3227 21.1216 42.3163 20.5079 42.3163 19.6648L42.4098 14.726C42.4098 13.6892 42.2808 12.8461 42.0261 12.1936C41.7714 11.5412 41.4006 11.0243 40.9106 10.6367C40.4237 10.2523 39.8402 9.98425 39.1631 9.84212C38.486 9.69677 37.7251 9.62571 36.8837 9.62571C36.2098 9.62571 35.5005 9.75168 34.7525 10.0069C34.2496 10.1781 33.7821 10.3945 33.3307 10.6367C32.2667 11.1309 31.5123 11.7996 31.0513 12.4973C30.6837 13.0012 30.4935 13.5018 30.4935 14.0057C30.4935 14.0316 30.4967 14.0509 30.4999 14.0768C30.4999 14.0994 30.4935 14.1188 30.4935 14.1414C30.4935 15.1169 30.9997 15.6951 31.9347 15.6951C32.8697 15.6951 33.234 14.9715 33.5209 14.1769C34.1142 12.4908 34.7074 10.921 36.5645 10.9436C36.7676 10.95 36.9675 10.963 37.1448 10.9953C37.1932 11.005 37.2319 11.0211 37.277 11.0308C37.4543 11.0728 37.622 11.1212 37.7735 11.1923C37.8154 11.2117 37.8541 11.2375 37.896 11.2569C38.0153 11.3215 38.1249 11.3958 38.2249 11.4766C38.2958 11.5379 38.3667 11.5961 38.428 11.6671C38.4635 11.7059 38.4957 11.7511 38.5279 11.7931C39.0212 12.4424 39.2308 13.4566 39.3694 14.8359C39.3694 15.3171 39.3275 15.6434 39.2437 15.8113C39.1599 15.9793 38.9471 16.1117 38.6118 16.2086C38.3474 16.3055 38.0411 16.396 37.6897 16.48C37.3415 16.564 36.961 16.6415 36.5516 16.7158C35.8294 16.8837 35.0782 17.0905 34.2947 17.3295C33.5113 17.5717 32.7891 17.8915 32.1281 18.2888C31.4672 18.6861 30.9255 19.1933 30.5032 19.807C30.0808 20.4207 29.8712 21.1765 29.8712 22.068C29.8712 22.8626 30.0292 23.5022 30.342 23.9867C30.6547 24.468 31.0513 24.8427 31.5349 25.1076C32.0153 25.3724 32.5279 25.5469 33.0695 25.6308C33.6112 25.7148 34.1206 25.7568 34.6042 25.7568C35.6875 25.7568 36.6451 25.5565 37.4737 25.1592C38.3023 24.7619 39.018 24.019 39.6209 22.9337C39.6693 23.2955 39.7273 23.4279 39.8756 23.7671C40.0207 24.1062 40.2303 24.4066 40.4979 24.6715C40.7655 24.9364 41.0943 25.1463 41.4844 25.3046C41.8746 25.4596 42.3356 25.5404 42.8676 25.5404C43.0965 25.5404 43.4576 25.5275 43.8799 25.5016H43.8767C43.8767 25.5016 43.8864 25.5016 43.8928 25.5016C43.967 25.4952 44.0444 25.4887 44.1218 25.4855C44.6376 25.4564 45.7564 25.4693 45.4598 26.1509C45.4598 26.1509 45.4533 26.1573 45.4533 26.1606C45.4017 26.2349 45.3566 26.3188 45.3082 26.3996C45.2856 26.4287 45.2695 26.4577 45.2437 26.49L45.2728 26.4642C45.1019 26.7485 44.9471 27.0456 44.8246 27.3751C44.6569 27.8208 44.5731 28.3086 44.5731 28.8416C44.5731 30.6504 45.2115 31.9651 46.485 32.7823C47.7618 33.6027 49.5286 34.0129 51.7919 34.0129C52.9719 34.0129 54.0616 33.8611 55.0579 33.5607C56.0574 33.2603 56.9117 32.8243 57.621 32.259C58.3303 31.6937 58.8849 31.0122 59.2814 30.2143C59.678 29.4197 59.8779 28.525 59.8779 27.5366C59.8779 26.6451 59.6683 25.886 59.246 25.2561C58.8236 24.6295 58.2465 24.1224 57.5146 23.738C56.7796 23.3536 55.9316 23.0758 54.9708 22.9046C54.0068 22.7367 52.9848 22.6527 51.9015 22.6527C50.9858 22.6527 50.2346 22.6107 49.6446 22.5267C49.0546 22.4427 48.5968 22.3329 48.2712 22.2005C47.9455 22.068 47.7231 21.9098 47.6038 21.7289C47.4845 21.548 47.4232 21.3606 47.4232 21.1668C47.4232 20.902 47.5425 20.6242 47.7843 20.3335C47.8198 20.2915 47.8585 20.2495 47.9004 20.2075C48.413 19.7068 49.1642 19.5356 49.8639 19.6842C50.0347 19.7198 50.2088 19.7488 50.3862 19.7714C50.844 19.8328 51.3244 19.8619 51.8306 19.8619C52.7204 19.8619 53.5651 19.7359 54.3583 19.4807C55.1514 19.2288 55.8381 18.8767 56.4152 18.431C56.9923 17.9852 57.4502 17.449 57.7855 16.8224C58.124 16.1957 58.2917 15.5077 58.2917 14.7616C58.2917 14.2512 58.2272 13.7796 58.1014 13.3468C57.8725 12.5683 58.3368 11.7511 59.1331 11.6025C60.5098 11.3441 62.2702 11.2537 62.8634 12.4197C63.0472 12.7783 63.202 13.3985 63.202 14.122V23.2244C63.202 23.6088 63.0085 23.8866 62.6248 24.0578C62.2379 24.2257 61.735 24.3711 61.1095 24.4906C60.8935 24.5391 60.7839 24.6844 60.7839 24.9234C60.7839 24.9945 60.7968 25.1043 60.8193 25.2497C60.8419 25.395 60.8548 25.479 60.8548 25.5016C60.9257 25.5016 61.0966 25.4887 61.361 25.4661C61.6254 25.4403 61.9381 25.4177 62.2992 25.395C62.6603 25.3692 63.0536 25.353 63.476 25.3401C63.9016 25.3272 64.3207 25.3207 64.7334 25.3207C65.1461 25.3207 65.5652 25.3272 65.9908 25.3401C66.4164 25.353 66.8097 25.3692 67.1708 25.395C67.5319 25.4177 67.8382 25.4435 68.0929 25.4661C68.3444 25.4887 68.5088 25.5016 68.5797 25.5016C68.6023 25.4758 68.6217 25.3918 68.6346 25.2497C68.6474 25.1043 68.6539 24.9977 68.6539 24.9234C68.6539 24.6844 68.5572 24.5391 68.3637 24.4906V24.4874ZM39.3727 20.1106C39.3727 20.7146 39.2695 21.267 39.0631 21.7741C38.8568 22.2812 38.5924 22.7205 38.2636 23.0952C37.9379 23.4699 37.551 23.7574 37.1029 23.9641C36.6547 24.1676 36.2001 24.271 35.7423 24.271C35.0395 24.271 34.4527 24.0287 33.982 23.5474C33.5113 23.0661 33.2727 22.3652 33.2727 21.4511C33.2727 20.776 33.4113 20.2107 33.6918 19.7521C33.9691 19.2934 34.3398 18.9155 34.8009 18.6118C35.2619 18.3114 35.7875 18.0756 36.3807 17.9077C36.9739 17.7397 37.5865 17.5944 38.2152 17.4748L39.3759 17.294V20.1138L39.3727 20.1106ZM47.4942 25.8085C47.7456 25.3272 48.2905 25.0785 48.816 25.2045C49.0869 25.2691 49.3738 25.3175 49.6801 25.3563C50.2701 25.4273 50.8762 25.4661 51.5017 25.4661C52.6076 25.4661 53.5361 25.5436 54.2809 25.7019C55.0256 25.8569 55.6286 26.0766 56.0864 26.3544C56.5442 26.6322 56.8666 26.9616 57.06 27.3492C57.2535 27.7336 57.3502 28.1568 57.3502 28.6154C57.3502 29.7008 56.9698 30.6116 56.2121 31.3449C55.4544 32.0813 54.2454 32.4463 52.585 32.4463C51.6952 32.4463 50.9117 32.3268 50.2379 32.0846C49.564 31.8423 48.9966 31.529 48.542 31.1446C48.0842 30.757 47.736 30.3112 47.4942 29.8074C47.2523 29.3002 47.1202 28.7963 47.0976 28.2892V27.6755C47.0976 27.4817 47.1105 27.2911 47.1331 27.0973C47.1717 26.6257 47.2943 26.1961 47.4909 25.815L47.4942 25.8085ZM54.3196 17.7236C53.7908 18.3017 53.0783 18.5925 52.1884 18.5925C51.563 18.5925 51.0374 18.46 50.6183 18.1952C50.1959 17.9303 49.8606 17.5814 49.6059 17.1454C49.3545 16.7125 49.1739 16.2216 49.0643 15.6789C48.9547 15.1363 48.9031 14.5871 48.9031 14.0316C48.9031 13.069 49.1513 12.3067 49.6446 11.7543C50.1379 11.1988 50.8053 10.921 51.6468 10.921C52.3206 10.921 52.8784 11.0534 53.3265 11.3183C53.7715 11.5831 54.1261 11.9288 54.3905 12.3487C54.6549 12.7718 54.8419 13.2402 54.9515 13.7602C55.0611 14.2803 55.1127 14.8036 55.1127 15.3333C55.1127 16.3475 54.8483 17.1421 54.3163 17.7203L54.3196 17.7236Z" fill="white"/>
<path d="M64.7173 5.67851C65.2944 5.67851 65.7748 5.4847 66.1617 5.10032C66.5453 4.71594 66.7388 4.20882 66.7388 3.58218C66.7388 3.00399 66.5453 2.50332 66.1617 2.08018C65.778 1.65704 65.2944 1.44708 64.7173 1.44708C64.1402 1.44708 63.6146 1.65704 63.2181 2.08018C62.8215 2.50332 62.6216 3.00399 62.6216 3.58218C62.6216 4.20882 62.8215 4.71594 63.2181 5.10032C63.6146 5.4847 64.1144 5.67851 64.7173 5.67851Z" fill="white"/>
<path d="M106.911 23.9092C106.502 23.8607 106.173 23.7961 105.918 23.7089C105.667 23.6249 105.467 23.5086 105.322 23.3665C105.176 23.2212 105.08 23.0467 105.031 22.8432C104.983 22.6397 104.96 22.391 104.96 22.1003V3.90518C104.96 3.13319 104.996 2.48394 105.07 1.95097C105.141 1.42124 105.18 0.949644 105.18 0.539421C105.18 0.177651 105.009 -0.00323486 104.67 -0.00323486C104.474 -0.00323486 104.158 0.058137 103.719 0.177651C103.281 0.297164 102.781 0.394067 102.223 0.468359C101.859 0.516811 101.395 0.558802 100.83 0.594333C100.263 0.629864 99.8244 0.649245 99.5117 0.649245C99.4633 0.843051 99.4408 1.01102 99.4408 1.15637C99.4408 1.44708 99.5988 1.61504 99.9083 1.6635C100.75 1.73456 101.298 1.9219 101.553 2.22553C101.804 2.52593 101.933 3.03952 101.933 3.76306V10.5979C101.233 10.3072 100.531 10.0747 99.8212 9.89378C99.1119 9.7129 98.2994 9.62245 97.3838 9.62245C96.639 9.62245 95.8266 9.8098 94.9464 10.1845C94.0694 10.5592 93.2537 11.1018 92.509 11.8125C91.7642 12.5231 91.1355 13.4049 90.6325 14.4514C90.1264 15.5012 89.8749 16.6899 89.8749 18.0142C89.8749 19.2449 90.049 20.3431 90.3972 21.3057C90.7454 22.2715 91.2097 23.0855 91.7868 23.7477C92.3639 24.4098 93.0248 24.9105 93.7728 25.2497C94.5176 25.5856 95.301 25.7568 96.12 25.7568C96.9389 25.7568 97.6353 25.6599 98.2124 25.4661C98.7895 25.2723 99.3021 25.0139 99.7471 24.6876C100.192 24.3614 100.582 23.9899 100.921 23.5668C101.259 23.1436 101.594 22.7043 101.933 22.2457V24.9945C101.933 25.3563 102.104 25.5371 102.446 25.5371C102.639 25.5371 102.939 25.4822 103.342 25.3756C103.745 25.2658 104.212 25.1657 104.751 25.0688C105.112 25.0203 105.55 24.9783 106.07 24.9428C106.585 24.9073 107.001 24.8879 107.314 24.8879C107.362 24.6941 107.385 24.5261 107.385 24.3808C107.385 24.1159 107.227 23.9576 106.914 23.9124L106.911 23.9092ZM101.93 19.2062C101.93 19.7617 101.804 20.3205 101.549 20.889C101.298 21.4575 100.972 21.9614 100.576 22.4072C100.179 22.8529 99.7406 23.2212 99.257 23.5086C98.7766 23.7994 98.293 23.9415 97.8126 23.9415C97.1162 23.9415 96.4811 23.7606 95.9168 23.3988C95.3526 23.037 94.869 22.5428 94.4724 21.9162C94.0759 21.2896 93.7728 20.5596 93.5697 19.7262C93.3666 18.8928 93.2634 18.0207 93.2634 17.1034C93.2634 15.2945 93.6181 13.8119 94.3274 12.6555C95.0367 11.4991 96.0909 10.921 97.487 10.921C98.4026 10.921 99.2215 11.1018 99.9405 11.4636C100.663 11.8254 101.324 12.3196 101.927 12.9462V19.2029L101.93 19.2062Z" fill="white"/>
<path d="M124.972 24.0513C124.563 24.0287 124.231 23.9738 123.979 23.8898C123.728 23.8058 123.528 23.6863 123.383 23.528C123.238 23.373 123.141 23.1662 123.093 22.9143C123.044 22.6623 123.022 22.3296 123.022 21.9194V10.1619C123.022 9.80009 122.851 9.6192 122.509 9.6192C122.313 9.6192 122.022 9.67411 121.632 9.78071C121.242 9.89053 120.778 9.98097 120.243 10.052C119.856 10.1231 119.408 10.178 118.889 10.2135C118.369 10.2491 117.957 10.2685 117.644 10.2685C117.596 10.4623 117.573 10.6302 117.573 10.7756C117.573 11.0404 117.731 11.1987 118.044 11.2439C118.885 11.315 119.42 11.4959 119.649 11.7866C119.878 12.0773 119.991 12.607 119.991 13.379V18.6602C119.991 19.4322 119.859 20.1073 119.595 20.6855C119.33 21.2637 118.976 21.7514 118.531 22.1487C118.086 22.5461 117.573 22.8497 116.996 23.0532C116.419 23.2567 115.829 23.36 115.226 23.36C114.671 23.36 114.217 23.2567 113.856 23.0532C113.495 22.8497 113.217 22.559 113.024 22.1843C112.83 21.8096 112.698 21.3703 112.627 20.8632C112.556 20.356 112.518 19.8037 112.518 19.1997V10.1619C112.518 9.80009 112.35 9.6192 112.012 9.6192C111.818 9.6192 111.525 9.67411 111.128 9.78071C110.732 9.89053 110.267 9.98097 109.739 10.052C109.377 10.1231 108.939 10.178 108.42 10.2135C107.901 10.2491 107.488 10.2685 107.175 10.2685C107.127 10.4623 107.104 10.6302 107.104 10.7756C107.104 11.0404 107.259 11.1987 107.572 11.2439C108.391 11.315 108.913 11.4927 109.142 11.7672C109.371 12.045 109.484 12.5812 109.484 13.3758V20.8987C109.484 22.4427 109.851 23.6346 110.586 24.4809C111.322 25.3239 112.421 25.7471 113.891 25.7471C114.71 25.7471 115.474 25.5726 116.184 25.2238C116.893 24.8749 117.518 24.4809 118.06 24.048C118.602 23.6152 119.04 23.205 119.379 22.8174C119.717 22.433 119.92 22.2037 119.991 22.1294V25.1301C119.991 25.4919 120.162 25.6728 120.504 25.6728C120.649 25.6728 120.9 25.6373 121.252 25.563C121.606 25.4919 122.013 25.4176 122.477 25.3465C122.938 25.2755 123.422 25.2012 123.928 25.1301C124.434 25.0591 124.914 25.0203 125.372 25.0203C125.421 24.8265 125.443 24.6585 125.443 24.5132C125.443 24.2483 125.285 24.09 124.972 24.0416V24.0513Z" fill="white"/>
<path d="M161.015 24.342C160.125 24.1967 159.535 24.0158 159.245 23.7994C158.954 23.583 158.8 23.2438 158.777 22.7884C158.632 19.2449 158.506 16.2765 158.397 13.8894C158.287 11.5024 158.197 9.59018 158.126 8.15602C158.055 6.72185 158 5.69791 157.965 5.08096C157.929 4.46725 157.91 4.14747 157.91 4.12163C157.91 3.7857 158.055 3.51437 158.342 3.30764C158.632 3.10414 159.209 2.93941 160.073 2.8199C160.312 2.79729 160.434 2.59056 160.434 2.20618C160.434 2.06082 160.408 1.87025 160.363 1.62799C160.051 1.65383 159.706 1.67644 159.335 1.69905C158.961 1.72489 158.593 1.74104 158.232 1.75396C157.871 1.76688 157.536 1.77981 157.223 1.7895C156.91 1.80242 156.656 1.80888 156.465 1.80888C156.033 1.80888 155.695 1.82826 155.453 1.86379C155.211 1.89932 155.021 1.94131 154.876 1.98976C154.731 2.03821 154.628 2.10928 154.57 2.20618C154.508 2.30308 154.454 2.39998 154.408 2.49689L147.08 20.5467L139.355 2.49689C139.307 2.39998 139.252 2.30308 139.194 2.20618C139.133 2.10928 139.033 2.03821 138.888 1.98976C138.743 1.94131 138.549 1.89932 138.31 1.86379C138.069 1.82826 137.733 1.80888 137.298 1.80888C137.082 1.80888 136.792 1.80242 136.431 1.7895C136.07 1.77658 135.693 1.76688 135.293 1.75396C134.896 1.74104 134.5 1.72489 134.1 1.69905C133.703 1.67644 133.349 1.6506 133.036 1.62799C132.988 1.87025 132.965 2.06082 132.965 2.20618C132.965 2.59379 133.084 2.79729 133.326 2.8199C134.168 2.96525 134.741 3.12676 135.041 3.30764C135.341 3.48853 135.493 3.77278 135.493 4.15716C135.493 4.183 135.473 4.62229 135.438 5.47827C135.402 6.33424 135.354 7.41955 135.293 8.7342C135.231 10.0489 135.167 11.4766 135.093 13.0205C135.022 14.5645 134.954 16.0213 134.893 17.3973C134.832 18.7701 134.78 19.9588 134.732 20.9601C134.683 21.9615 134.661 22.5687 134.661 22.7851C134.612 23.2438 134.39 23.5862 133.993 23.8155C133.597 24.0449 133.071 24.2193 132.423 24.3388C132.181 24.3873 132.062 24.5811 132.062 24.917C132.062 25.0623 132.085 25.2561 132.133 25.4952C132.71 25.4467 133.323 25.4047 133.974 25.3692C134.622 25.3337 135.141 25.3143 135.528 25.3143C136.008 25.3143 136.563 25.3337 137.188 25.3692C137.814 25.4047 138.452 25.4467 139.1 25.4952C139.149 25.2529 139.171 25.0623 139.171 24.917C139.171 24.5552 139.052 24.3614 138.81 24.3388C137.172 24.0481 136.353 23.5313 136.353 22.7851C136.353 22.7367 136.373 22.3038 136.408 21.4834C136.444 20.663 136.492 19.6519 136.553 18.4439C136.615 17.239 136.679 15.9244 136.753 14.4999C136.824 13.0787 136.892 11.7285 136.953 10.4494C137.014 9.17027 137.063 8.0688 137.098 7.13854C137.134 6.2115 137.163 5.62685 137.188 5.38459L146.032 25.7116C146.081 25.7342 146.187 25.7471 146.358 25.7471C146.503 25.7471 146.616 25.6922 146.7 25.5856C146.783 25.4758 146.874 25.3143 146.97 25.0979L154.876 5.96278C154.876 6.15659 154.898 6.69278 154.947 7.57137C154.995 8.45319 155.05 9.49974 155.108 10.7175C155.169 11.9352 155.227 13.2305 155.289 14.6065C155.35 15.9793 155.408 17.2584 155.469 18.4406C155.53 19.6229 155.579 20.6242 155.614 21.4414C155.65 22.2618 155.669 22.7076 155.669 22.7787C155.669 23.2373 155.495 23.5636 155.147 23.7542C154.799 23.948 154.141 24.1418 153.18 24.3323C152.938 24.3323 152.819 24.5261 152.819 24.9105C152.819 25.0559 152.841 25.2497 152.89 25.4887C153.18 25.4629 153.515 25.4403 153.899 25.4177C154.283 25.395 154.676 25.3757 155.073 25.3627C155.469 25.3498 155.85 25.3369 156.211 25.3272C156.572 25.3143 156.872 25.3078 157.113 25.3078C157.691 25.3078 158.322 25.3272 159.009 25.3627C159.696 25.3983 160.46 25.4403 161.302 25.4887C161.35 25.2465 161.372 25.0559 161.372 24.9105C161.372 24.7652 161.343 24.6392 161.282 24.5294C161.221 24.4196 161.131 24.355 161.011 24.3291L161.015 24.342Z" fill="white"/>
<path d="M190.244 5.67851C190.821 5.67851 191.302 5.4847 191.689 5.10032C192.072 4.71594 192.266 4.20882 192.266 3.58218C192.266 3.00399 192.072 2.50332 191.689 2.08018C191.302 1.65704 190.821 1.44708 190.244 1.44708C189.667 1.44708 189.145 1.65704 188.745 2.08018C188.348 2.50332 188.149 3.00399 188.149 3.58218C188.149 4.20882 188.348 4.71594 188.745 5.10032C189.142 5.4847 189.641 5.67851 190.244 5.67851Z" fill="white"/>
<path d="M212.449 24.4874C211.92 24.3905 211.436 24.2516 211.004 24.0707C210.572 23.8898 210.356 23.6185 210.356 23.2567V14.4676C210.356 12.9495 209.989 11.7608 209.26 10.9048C208.528 10.0488 207.432 9.61923 205.968 9.61923C204.84 9.61923 203.802 9.93255 202.857 10.5592C201.909 11.1858 200.919 12.0773 199.887 13.2369C199.887 12.4649 199.923 11.8448 199.997 11.3732C200.068 10.9016 200.107 10.501 200.107 10.1619C200.107 9.80011 199.936 9.61923 199.597 9.61923C199.401 9.61923 199.085 9.67414 198.646 9.78073C198.208 9.89056 197.708 9.99069 197.15 10.0876C196.786 10.136 196.322 10.178 195.757 10.2136C195.19 10.2491 194.752 10.2685 194.439 10.2685C194.39 10.4623 194.368 10.6173 194.368 10.7401C194.368 11.0308 194.523 11.1987 194.835 11.2472C195.677 11.3183 196.225 11.5121 196.48 11.8254C196.731 12.1387 196.86 12.6587 196.86 13.3791V23.2179C196.86 23.6023 196.644 23.8866 196.212 24.0675C196.086 24.1191 195.935 24.1676 195.774 24.2128C194.419 24.468 193.281 24.3 192.93 24.2354C192.74 24.1773 192.562 24.1159 192.417 24.0513C192.043 23.8833 191.856 23.6055 191.856 23.2179V13.2337C191.856 12.4617 191.892 11.1051 191.966 10.6367C192.037 10.1651 192.063 9.89056 192.063 9.55139C192.063 9.18962 191.892 9.00874 191.553 9.00874C191.357 9.00874 191.189 9.02812 190.618 9.04427C190.36 9.05073 189.351 9.04427 188.526 8.97644C187.878 8.92153 187.239 9.08949 186.698 9.44803C186.214 9.76781 185.643 10.0424 185.076 10.2685C184.899 10.3395 184.721 10.4009 184.541 10.4526C183.922 10.4235 183.358 10.3525 182.906 10.2782C182.274 10.1748 181.813 9.62246 181.813 8.97967V6.28577H181.162C180.898 6.28577 180.656 6.53771 180.44 7.04484C180.224 7.55196 179.972 8.09462 179.682 8.67281C179.418 9.20254 179.079 9.63861 178.673 9.97454C178.263 10.3137 177.735 10.4817 177.083 10.4817C176.89 10.4817 176.764 10.5527 176.703 10.6981C176.642 10.8434 176.613 10.9985 176.613 11.1697V11.567H178.779V21.5512C178.779 22.4201 178.87 23.1243 179.05 23.6669C179.069 23.7218 179.092 23.7735 179.111 23.8284L178.976 23.8704C178.254 24.0998 177.477 24.145 176.751 23.9318C175.475 23.5571 174.775 22.6204 174.514 21.4801C174.43 21.1119 174.424 20.4982 174.424 19.6551L174.517 14.7163C174.517 13.6795 174.388 12.8364 174.133 12.1839C173.879 11.5314 173.508 11.0146 173.018 10.627C172.531 10.2426 171.947 9.97454 171.27 9.83241C170.593 9.68706 169.832 9.616 168.991 9.616C168.317 9.616 167.608 9.74197 166.86 9.99715C166.357 10.1683 165.889 10.3848 165.438 10.627C164.377 11.1212 163.623 11.7866 163.162 12.4811C162.791 12.985 162.601 13.4889 162.601 13.9928C162.601 14.0186 162.604 14.038 162.607 14.0638C162.607 14.0865 162.601 14.1058 162.601 14.1284C162.601 15.1039 163.107 15.6821 164.042 15.6821C164.977 15.6821 165.341 14.9586 165.628 14.164C166.221 12.4779 166.815 10.908 168.672 10.9306C168.875 10.9371 169.075 10.95 169.252 10.9823C169.3 10.992 169.339 11.0082 169.384 11.0179C169.562 11.0599 169.729 11.1083 169.881 11.1794C169.923 11.1987 169.961 11.2246 170.003 11.244C170.123 11.3086 170.229 11.3829 170.332 11.4636C170.403 11.525 170.474 11.5864 170.539 11.6542C170.574 11.6929 170.606 11.7382 170.638 11.7802C171.132 12.4294 171.341 13.4437 171.48 14.8229C171.48 15.3042 171.438 15.6304 171.354 15.7984C171.27 15.9664 171.058 16.0988 170.722 16.1957C170.458 16.2926 170.152 16.383 169.8 16.467C169.452 16.551 169.072 16.6285 168.662 16.7028C167.94 16.8708 167.189 17.0775 166.405 17.3165C165.622 17.5588 164.9 17.8786 164.239 18.2759C163.578 18.6732 163.036 19.1803 162.614 19.794C162.191 20.4078 161.982 21.1636 161.982 22.0551C161.982 22.8497 162.14 23.4893 162.449 23.9738C162.762 24.4551 163.159 24.8298 163.642 25.0946C164.123 25.3595 164.635 25.5339 165.177 25.6179C165.719 25.7019 166.228 25.7439 166.712 25.7439C167.795 25.7439 168.752 25.5436 169.581 25.1463C170.41 24.749 171.125 24.0061 171.728 22.9208C171.777 23.2825 171.835 23.415 171.98 23.7541C172.125 24.0933 172.334 24.3937 172.602 24.6586C172.87 24.9234 173.198 25.1334 173.589 25.2917C173.979 25.4467 174.44 25.5275 174.972 25.5275C175.623 25.5275 177.335 25.437 178.547 25.1075C178.521 25.1269 179.169 24.9557 179.669 24.8233C179.705 24.8653 179.74 24.9105 179.776 24.9493C180.088 25.2626 180.462 25.4725 180.894 25.5824C181.326 25.6922 181.784 25.7439 182.268 25.7439C183.087 25.7439 183.857 25.5275 184.579 25.0914C185.302 24.6586 185.976 24.0901 186.601 23.3924C186.433 23.079 186.24 22.9208 186.024 22.9208C185.976 22.9208 185.911 22.9337 185.824 22.9563C185.74 22.9821 185.637 23.0532 185.518 23.1727C185.205 23.415 184.873 23.6249 184.525 23.8058C184.176 23.9867 183.796 24.0771 183.387 24.0771C183.145 24.0771 182.929 24.0416 182.739 23.9673C182.545 23.8963 182.377 23.7315 182.232 23.4796C182.087 23.2276 181.981 22.8659 181.907 22.3943C181.833 21.9227 181.797 21.3025 181.797 20.5305V12.7815C181.797 12.0903 182.326 11.5153 183.009 11.4604L184.589 11.3279H184.596C184.596 11.3279 184.625 11.3279 184.638 11.3247L185.779 11.2278C186.901 11.2343 188.042 11.5508 188.474 12.4036C188.658 12.7621 188.813 13.3823 188.813 14.1058V22.7205L188.726 23.2082C188.726 23.5926 188.532 23.8704 188.149 24.0416C187.762 24.2096 187.259 24.3549 186.633 24.4744C186.417 24.5229 186.308 24.6682 186.308 24.9073C186.308 24.9783 186.32 25.0882 186.343 25.2335C186.366 25.3789 186.379 25.4629 186.379 25.4855C186.398 25.4855 186.43 25.4855 186.466 25.4822C186.466 25.4822 186.466 25.4822 186.466 25.4855C186.537 25.4855 186.704 25.4725 186.972 25.4499C187.236 25.4241 187.549 25.4015 187.91 25.3789C188.271 25.353 188.664 25.3369 189.087 25.324C189.496 25.311 189.902 25.3078 190.302 25.3078C190.702 25.3078 191.105 25.3143 191.515 25.324C191.94 25.3369 192.333 25.353 192.695 25.3789C193.056 25.4015 193.362 25.4273 193.613 25.4499C193.733 25.4596 193.875 25.4693 193.997 25.4758C194.084 25.4822 194.149 25.4855 194.187 25.4855C194.229 25.4855 194.255 25.4855 194.278 25.4855C194.278 25.4855 194.278 25.4855 194.281 25.4855C194.281 25.4855 194.29 25.4855 194.294 25.4855C194.893 25.437 195.715 25.395 196.338 25.3595C196.966 25.324 197.634 25.3046 198.34 25.3046C199.046 25.3046 199.665 25.324 200.268 25.3595C200.871 25.395 201.487 25.437 202.112 25.4855C202.16 25.2432 202.183 25.0526 202.183 24.9073C202.183 24.6682 202.073 24.5229 201.857 24.4744C201.377 24.3775 200.926 24.2386 200.503 24.0578C200.081 23.8769 199.871 23.6055 199.871 23.2438V16.6608C199.871 15.9147 200.004 15.2493 200.268 14.6711C200.532 14.0929 200.884 13.6052 201.329 13.2079C201.774 12.8106 202.28 12.5102 202.857 12.3034C203.431 12.0999 204.018 11.9966 204.617 11.9966C205.169 11.9966 205.617 12.0999 205.965 12.3034C206.313 12.5069 206.587 12.7976 206.79 13.1723C206.993 13.547 207.132 13.9863 207.203 14.4934C207.274 15.0006 207.309 15.5561 207.309 16.1569V23.247C207.309 23.6088 207.103 23.8801 206.697 24.061C206.287 24.2419 205.83 24.3808 205.323 24.4777C205.107 24.5261 204.998 24.6715 204.998 24.9105C204.998 25.0559 205.02 25.2497 205.069 25.4887C205.694 25.4402 206.326 25.3983 206.964 25.3627C207.603 25.3272 208.248 25.3078 208.896 25.3078C209.592 25.3078 210.243 25.3272 210.846 25.3627C211.446 25.3983 212.062 25.4402 212.687 25.4887C212.736 25.2464 212.758 25.0559 212.758 24.9105C212.758 24.6715 212.648 24.5261 212.432 24.4777L212.449 24.4874ZM171.474 20.1106C171.474 20.7146 171.37 21.267 171.164 21.7741C170.958 22.2812 170.693 22.7205 170.364 23.0952C170.039 23.4699 169.652 23.7574 169.204 23.9641C168.756 24.1676 168.301 24.2709 167.843 24.2709C167.14 24.2709 166.554 24.0287 166.083 23.5474C165.612 23.0661 165.374 22.3652 165.374 21.4511C165.374 20.776 165.512 20.2107 165.793 19.752C166.07 19.2934 166.441 18.9154 166.902 18.6118C167.363 18.3114 167.888 18.0756 168.482 17.9077C169.075 17.7397 169.687 17.5943 170.316 17.4748L171.477 17.2939V20.1138L171.474 20.1106Z" fill="white"/>
</g>
<defs>
<clipPath id="clip0_1927_13525">
<rect width="212.774" height="34" fill="white"/>
</clipPath>
</defs>
</svg>
